<svg width="256" height="256" viewBox="0 0 256 256" fill="none" xmlns="http://www.w3.org/2000/svg">
<g clip-path="url(#clip0_77_45)">
<path fill-rule="evenodd" clip-rule="evenodd" d="M117.083 1.86112C112.505 2.12345 108.687 2.50559 108.241 2.74613C107.809 2.97941 106.045 3.30074 104.32 3.4614C102.595 3.62206 100.849 3.93431 100.439 4.15488C100.029 4.37636 98.5921 4.7349 97.2441 4.95184C95.8971 5.16878 94.6194 5.49283 94.406 5.67165C94.1917 5.85046 93.3011 6.10734 92.4268 6.24259C91.5525 6.37784 90.3756 6.72367 89.811 7.01051C89.2474 7.29734 88.0417 7.74574 87.1313 8.00716C86.221 8.26858 84.7533 8.74603 83.869 9.06826C82.3005 9.64011 81.8791 9.82074 78.47 11.392C77.5642 11.8104 76.5809 12.1517 76.2846 12.1517C75.9893 12.1517 75.3383 12.4758 74.8385 12.8724C74.3388 13.2682 73.6959 13.5922 73.4095 13.5922C73.1232 13.5922 72.4794 13.9163 71.9796 14.313C71.4799 14.7087 70.837 15.0337 70.5507 15.0337C70.2643 15.0337 69.634 15.3477 69.1496 15.7317C68.6651 16.1156 67.8394 16.5377 67.3145 16.6712C66.7895 16.8037 66.36 17.027 66.36 17.1668C66.36 17.3065 65.8378 17.6978 65.1993 18.0354C64.56 18.374 63.3949 19.0448 62.6088 19.5259C61.8227 20.0079 60.7791 20.6115 60.2911 20.8693C59.8021 21.1261 59.1187 21.6199 58.772 21.9667C58.4254 22.3134 57.9085 22.5975 57.624 22.5975C57.3385 22.5975 56.9774 22.8009 56.8199 23.0487C56.6632 23.2965 55.8105 23.9854 54.9263 24.5799C54.042 25.1736 53.0065 25.9424 52.6256 26.2891C52.2447 26.6359 51.8152 26.92 51.6721 26.92C51.5289 26.92 50.7563 27.5272 49.9567 28.2707C47.7516 30.3175 45.6364 32.1039 44.9764 32.4769C44.0571 32.9961 32.0578 45.1983 32.0578 45.6132C32.0578 45.8165 31.7688 46.2722 31.4167 46.6262C31.0637 46.9811 30.0661 48.1629 29.1998 49.2521C28.3327 50.3414 27.3359 51.5232 26.983 51.8772C26.63 52.2321 26.3409 52.695 26.3409 52.9065C26.3409 53.2424 25.5675 54.3398 24.1025 56.0799C23.8593 56.3676 23.4676 57.0565 23.2317 57.6102C22.9958 58.1639 22.6338 58.6169 22.4276 58.6169C22.2214 58.6169 22.0531 58.8356 22.0531 59.1016C22.0531 59.3685 21.7316 59.8795 21.3381 60.238C20.9455 60.5966 20.6241 61.1639 20.6241 61.4988C20.6241 61.8338 20.3026 62.4011 19.9091 62.7596C19.5165 63.1182 19.1942 63.6855 19.1942 64.0204C19.1942 64.3554 18.8727 64.9227 18.4801 65.2812C18.0866 65.6398 17.7652 66.1526 17.7652 66.4213C17.7652 66.6891 17.4437 67.1865 17.0511 67.5259C16.6576 67.8645 16.3362 68.5135 16.3362 68.9665C16.3362 69.4194 16.0147 70.0684 15.6212 70.407C15.2286 70.7465 14.9072 71.3946 14.9072 71.8484C14.9072 72.3014 14.5848 72.9495 14.1922 73.2889C13.7987 73.6284 13.4773 74.2747 13.4773 74.7258C13.4773 75.177 13.1558 75.8704 12.7632 76.2671C12.3697 76.6629 12.0483 77.4516 12.0483 78.019C12.0483 78.5872 11.7502 79.4377 11.3856 79.9106C11.0209 80.3826 10.6103 81.3856 10.4725 82.139C10.3348 82.8924 9.98989 83.5986 9.70625 83.7084C9.42171 83.8183 9.1894 84.3529 9.1894 84.8966C9.1894 86.0784 8.51587 88.1534 8.13228 88.1534C7.98281 88.1534 7.7622 88.9858 7.64244 90.0042C7.52269 91.0218 7.17872 92.1283 6.87797 92.4632C6.57723 92.799 6.33141 93.7149 6.33141 94.4992C6.33141 95.2834 6.00995 96.5615 5.61646 97.3384C5.22387 98.1154 4.89521 99.3254 4.88621 100.026C4.8646 101.828 4.33064 104.409 3.92454 104.676C3.73545 104.801 3.47972 106.501 3.35546 108.453C3.2276 110.457 2.89264 112.482 2.58649 113.102C0.813524 116.683 2.07954 133.538 4.12084 133.538C4.33424 133.538 4.6665 133.823 4.85919 134.169C5.47419 135.278 37.7387 135.339 39.7404 134.236C42.4993 132.713 42.8064 131.996 43.0063 126.606C43.1035 123.98 43.3988 121.184 43.6618 120.391C43.9247 119.599 44.2245 117.463 44.3272 115.644C44.4388 113.68 44.7261 111.999 45.0349 111.502C45.3213 111.042 45.6661 109.612 45.8012 108.324C45.9363 107.037 46.2568 105.74 46.5126 105.443C46.7683 105.146 47.0861 104.146 47.2176 103.221C47.35 102.296 47.6705 101.361 47.9317 101.144C48.1919 100.926 48.5061 100.113 48.6286 99.3381C48.7519 98.5638 49.0689 97.7115 49.3327 97.4456C49.5975 97.1787 49.9234 96.3726 50.0567 95.6547C50.1909 94.9367 50.5177 94.1669 50.7833 93.9446C51.049 93.7222 51.365 93.0441 51.4857 92.4387C51.6054 91.8323 52.0268 90.9228 52.4221 90.4172C52.8165 89.9107 53.1398 89.3253 53.1398 89.1147C53.1398 88.7516 54.8569 86.0131 55.3233 85.6318C55.4449 85.5329 55.6691 85.05 55.8213 84.5589C56.1328 83.5541 57.398 81.6262 58.0057 81.2286C58.2255 81.0843 58.6027 80.4879 58.8423 79.9033C59.0827 79.3188 59.5059 78.7524 59.7823 78.6453C60.0597 78.5382 60.2857 78.2386 60.2857 77.979C60.2857 77.7194 60.5675 77.2465 60.9115 76.9279C61.2554 76.6093 61.8578 75.9086 62.2513 75.3712C64.3259 72.5328 70.3634 66.4721 74.3469 63.2289C74.907 62.7723 75.6264 62.1161 75.9452 61.7693C76.263 61.4226 76.7214 61.1385 76.9627 61.1385C77.204 61.1385 77.5299 60.9188 77.6875 60.651C77.8442 60.3824 78.3755 59.9512 78.8662 59.6916C79.3578 59.4329 80.342 58.7503 81.0525 58.1766C82.4256 57.0674 84.1311 56.0445 85.7446 55.361C86.2849 55.1322 86.727 54.8163 86.727 54.6593C86.727 54.5014 87.3303 54.112 88.0678 53.7915C88.8043 53.472 89.649 53.0745 89.9434 52.9093C91.2265 52.1858 93.7252 51.0503 94.0521 51.0412C94.2493 51.0349 95.2136 50.6318 96.196 50.1444C97.1793 49.657 98.2238 49.2521 98.5192 49.244C98.8136 49.2358 99.3512 49.0025 99.7131 48.7266C100.075 48.4497 101.039 48.113 101.857 47.9786C102.674 47.8434 103.59 47.513 103.894 47.2434C104.196 46.9747 105.403 46.6425 106.574 46.5063C107.744 46.3702 109.035 46.0407 109.442 45.7747C109.849 45.5088 111.458 45.1965 113.015 45.0794C114.574 44.9633 116.492 44.6102 117.278 44.2952C118.648 43.7451 136.555 43.3112 163.997 43.1615L169.982 43.1288V26.3799V9.63013H169.131C168.58 9.63013 168.213 9.37597 168.092 8.90942C167.951 8.3657 167.604 8.18961 166.677 8.18961C165.902 8.18961 165.209 7.92365 164.801 7.46889C164.324 6.93789 163.701 6.74909 162.423 6.74909C161.218 6.74909 160.492 6.54667 160.034 6.08556C159.587 5.63443 158.6 5.34942 156.946 5.1942C155.609 5.06803 154.256 4.73853 153.94 4.46168C153.599 4.16214 152.066 3.85806 150.151 3.71011C148.383 3.57395 146.607 3.24718 146.206 2.98486C145.742 2.68168 143.083 2.354 138.881 2.08442C128.276 1.40183 125.592 1.3746 117.083 1.86112ZM123.531 62.2177C122.646 62.3866 120.168 62.7133 118.021 62.9439C115.875 63.1753 113.784 63.5729 113.375 63.8289C112.968 64.0849 111.829 64.3944 110.846 64.5169C109.864 64.6395 108.577 64.968 107.988 65.2467C107.398 65.5263 105.71 66.2052 104.236 66.7553C102.762 67.3063 101.315 67.9571 101.02 68.2013C100.725 68.4464 100.002 68.765 99.4124 68.9102C98.8226 69.0545 97.9564 69.4721 97.4882 69.8379C97.019 70.2046 96.4824 70.5041 96.2942 70.5041C96.106 70.5041 95.5432 70.8282 95.0435 71.2239C94.5437 71.6206 93.9152 71.9446 93.6469 71.9446C93.3786 71.9446 92.8536 72.2278 92.4808 72.5746C92.1071 72.9213 91.2076 73.6103 90.4809 74.1059C89.7543 74.6015 88.898 75.2895 88.5783 75.6362C88.2596 75.983 87.812 76.2671 87.586 76.2671C87.0557 76.2671 78.8113 84.4763 76.7331 87.0733C75.8605 88.1625 74.8584 89.3443 74.5054 89.6983C74.1524 90.0523 73.8643 90.5543 73.8643 90.813C73.8643 91.0717 73.5428 91.5773 73.1493 91.9358C72.7567 92.2944 72.4344 92.7691 72.4344 92.9924C72.4344 93.2148 72.1129 93.6741 71.7203 94.0135C71.3268 94.3521 71.0054 94.9312 71.0054 95.2988C71.0054 95.6665 70.6839 96.3418 70.2904 96.7984C69.8978 97.2549 69.5764 97.9085 69.5764 98.2498C69.5764 98.592 69.336 99.0722 69.0424 99.3172C68.7498 99.5632 68.341 100.393 68.1357 101.163C67.9304 101.932 67.6152 102.561 67.4351 102.561C67.2551 102.561 67.0047 103.17 66.8796 103.912C66.7535 104.655 66.3447 105.702 65.9692 106.238C65.5947 106.776 65.2876 107.748 65.2858 108.4C65.2849 109.052 64.9643 110.072 64.5736 110.666C64.1089 111.374 63.8604 112.367 63.8541 113.547C63.8478 114.551 63.5308 116.043 63.1364 116.918C62.5151 118.3 62.4296 119.283 62.4296 125.097C62.4296 132.161 62.5467 132.616 64.6276 133.68C64.8923 133.816 65.5118 134.161 66.0034 134.448C66.7463 134.881 69.616 134.97 83.0487 134.974L99.2017 134.979L100.382 134.169C102.983 132.383 103.234 131.915 103.503 128.36C103.64 126.553 103.92 124.75 104.125 124.353C104.331 123.958 104.607 123.032 104.738 122.296C104.983 120.93 106.609 116.935 107.053 116.609C107.188 116.51 107.889 115.519 108.612 114.407C109.806 112.571 110.876 111.479 113.24 109.681C113.692 109.338 114.464 108.753 114.956 108.38C115.447 108.008 116.251 107.581 116.742 107.431C117.233 107.281 117.877 106.948 118.171 106.691C118.466 106.435 119.351 106.105 120.137 105.96C120.923 105.814 121.887 105.491 122.281 105.241C122.84 104.885 132.422 104.736 166.41 104.555C215.606 104.291 211.788 104.469 211.788 102.44C211.788 101.324 211.973 100.817 212.503 100.484C213.452 99.8864 213.493 98.2343 212.552 98.4822C211.963 98.6374 211.716 96.704 212.114 95.0429C212.131 94.9693 212.387 95.111 212.681 95.3578C213.143 95.7436 213.218 95.6002 213.218 94.3213C213.218 93.1222 213.092 92.8363 212.563 92.8363C212.017 92.8363 211.914 92.5549 211.941 91.1252C211.958 90.184 212.132 89.4142 212.327 89.4142C212.522 89.4142 212.66 89.6148 212.633 89.8608C212.606 90.1059 212.726 90.2185 212.901 90.1095C213.313 89.8527 213.313 86.4551 212.901 86.1973C212.726 86.0893 212.606 86.2318 212.633 86.515C212.66 86.7991 212.521 87.0406 212.325 87.0515C211.744 87.086 211.882 83.3798 212.468 83.1829C212.829 83.0612 212.913 83.2291 212.769 83.7838C212.66 84.2067 212.715 84.4618 212.894 84.3511C213.072 84.2394 213.212 83.3072 213.207 82.2788C213.198 80.8192 213.115 80.5487 212.827 81.047C212.235 82.0718 211.906 81.4818 211.944 79.4631C211.978 77.6132 212.63 76.6592 212.971 77.9581C213.066 78.3158 213.119 75.2042 213.091 71.0442L213.039 63.4803L207.679 63.2153C204.731 63.0691 200.792 62.7678 198.925 62.5445C194.804 62.0525 125.958 61.753 123.531 62.2177ZM212.681 75.5464C212.508 75.8287 212.303 75.8496 212.065 75.609C211.868 75.4111 211.824 75.0589 211.967 74.8266C212.14 74.5443 212.345 74.5234 212.584 74.763C212.78 74.9618 212.824 75.314 212.681 75.5464ZM154.975 125.108C154.975 125.424 154.653 125.767 154.26 125.87C153.615 126.04 153.542 126.378 153.51 129.348C153.472 132.885 153.221 134.324 152.653 134.263C152.455 134.241 152.145 135.163 151.962 136.312C151.752 137.624 151.387 138.576 150.979 138.872C150.597 139.149 150.329 139.792 150.329 140.436C150.329 141.228 150.132 141.582 149.615 141.719C149.202 141.828 148.9 142.21 148.9 142.625C148.9 143.604 143.275 149.027 142.26 149.027C141.982 149.027 141.755 149.259 141.755 149.543C141.755 149.827 141.393 150.175 140.951 150.315C140.51 150.457 139.982 150.803 139.778 151.084C139.574 151.366 138.705 151.692 137.846 151.807C136.988 151.923 135.989 152.318 135.625 152.684C135.063 153.25 134.393 153.348 131.124 153.338C72.1237 153.166 11.0227 153.636 9.53967 154.275C6.38183 155.635 5.15814 158.008 5.91451 161.31C6.14412 162.311 6.33141 163.538 6.33141 164.036C6.33141 164.535 6.65286 165.354 7.04545 165.858C7.48667 166.423 7.76041 167.319 7.76041 168.199C7.76041 169.079 8.03414 169.975 8.47535 170.541C8.86794 171.045 9.1894 171.936 9.1894 172.521C9.1894 173.108 9.51085 173.999 9.90435 174.503C10.2978 175.007 10.6193 175.883 10.6193 176.451C10.6193 177.018 10.7544 177.483 10.9191 177.483C11.3495 177.483 12.0483 179.164 12.0483 180.201C12.0483 180.687 12.3697 181.409 12.7632 181.805C13.1558 182.201 13.4773 182.849 13.4773 183.246C13.4773 183.642 13.7987 184.291 14.1922 184.686C14.5848 185.083 14.9072 185.731 14.9072 186.128C14.9072 186.524 15.2286 187.172 15.6212 187.568C16.0147 187.964 16.3362 188.655 16.3362 189.102C16.3362 189.55 16.6576 190.119 17.0511 190.366C17.4437 190.614 17.7652 191.14 17.7652 191.537C17.7652 191.933 18.0866 192.535 18.4801 192.875C18.8727 193.214 19.1942 193.699 19.1942 193.952C19.1942 194.205 19.5165 194.412 19.9091 194.412C20.3026 194.412 20.9626 194.754 21.3759 195.17L22.1287 195.929L77.0284 195.953L131.928 195.977L134.377 195.195C135.859 194.722 137.755 194.412 139.173 194.412C140.874 194.412 141.702 194.244 142.186 193.803C142.6 193.427 143.671 193.135 145.009 193.038C146.616 192.921 147.27 192.71 147.582 192.206C147.866 191.748 148.416 191.53 149.289 191.53C150.122 191.53 150.804 191.276 151.223 190.81C151.578 190.414 152.155 190.09 152.503 190.09C154.043 190.09 154.26 188.486 154.26 177.112C154.26 168.034 154.342 166.336 154.797 165.956C155.091 165.71 155.332 165.302 155.332 165.05C155.332 164.799 155.091 164.499 154.797 164.386C154.501 164.271 154.26 163.947 154.26 163.665C154.26 163.383 154.501 163.059 154.797 162.944C155.398 162.712 155.536 161.634 154.964 161.634C154.182 161.634 154.208 160.532 155.005 159.882L155.826 159.211L155.043 158.789C154.613 158.556 154.26 158.196 154.26 157.987C154.26 157.778 154.613 157.32 155.043 156.968L155.826 156.33L155.043 155.908C154.613 155.675 154.26 155.314 154.26 155.105C154.26 154.897 154.613 154.438 155.043 154.087L155.826 153.448L155.043 153.026C154.043 152.487 154.046 151.78 155.052 151.106L155.844 150.576L155.052 150.149C154.044 149.605 154.039 148.811 155.043 148.27L155.826 147.847L155.043 147.209C154.613 146.858 154.26 146.4 154.26 146.191C154.26 145.981 154.613 145.621 155.043 145.388L155.826 144.966L155.043 144.327C154.072 143.535 154.053 143.041 154.975 142.544C155.525 142.247 155.69 141.789 155.69 140.553C155.69 139.338 155.516 138.838 154.975 138.498C154.582 138.25 154.26 137.88 154.26 137.674C154.26 137.469 154.582 137.023 154.975 136.684C155.775 135.993 156.113 124.533 155.332 124.533C155.136 124.533 154.975 124.792 154.975 125.108ZM211.011 150.147C210.906 152.028 210.705 152.827 210.255 153.158C209.841 153.463 209.642 154.119 209.639 155.19C209.633 156.948 209.216 157.893 208.612 157.516C208.346 157.351 208.215 157.747 208.215 158.718C208.215 159.799 208.033 160.266 207.5 160.553C207.089 160.776 206.786 161.308 206.786 161.81C206.786 162.793 206.092 164.516 205.697 164.516C205.553 164.516 205.329 165.091 205.198 165.795C205.067 166.499 204.742 167.159 204.476 167.262C204.21 167.365 203.887 167.87 203.759 168.385C203.631 168.901 203.214 169.721 202.833 170.209C202.452 170.697 202.141 171.282 202.141 171.508C202.141 171.734 201.819 172.197 201.426 172.537C201.033 172.875 200.712 173.474 200.712 173.865C200.712 174.256 200.39 174.749 199.997 174.961C199.604 175.174 199.282 175.559 199.282 175.819C199.282 176.078 198.96 176.584 198.568 176.943C198.174 177.301 197.853 177.811 197.853 178.076C197.853 178.341 197.531 178.76 197.139 179.007C196.745 179.255 196.424 179.655 196.424 179.898C196.424 180.141 196.102 180.513 195.709 180.724C195.316 180.937 194.995 181.342 194.995 181.625C194.995 181.908 194.672 182.314 194.28 182.525C193.886 182.738 193.565 183.069 193.565 183.262C193.565 183.456 192.937 184.301 192.171 185.14C189.435 188.137 188.92 188.758 188.92 189.062C188.92 189.231 188.735 189.369 188.508 189.369C188.281 189.369 187.518 189.984 186.811 190.735C185.163 192.486 181.615 195.493 181.196 195.493C181.018 195.493 180.672 195.817 180.428 196.213C180.182 196.609 179.741 196.933 179.448 196.933C179.155 196.933 178.915 197.079 178.915 197.258C178.915 197.545 177.786 198.37 175.584 199.693C175.201 199.922 174.789 200.25 174.668 200.42C174.548 200.59 174.047 200.941 173.555 201.197C171.948 202.037 170.534 202.871 169.635 203.51C169.149 203.855 168.482 204.138 168.155 204.138C167.826 204.138 167.471 204.365 167.365 204.644C167.259 204.922 166.638 205.268 165.986 205.411C165.334 205.554 164.418 205.975 163.949 206.346C163.48 206.716 162.817 207.019 162.475 207.019C162.132 207.019 161.655 207.258 161.415 207.55C161.174 207.842 160.391 208.189 159.673 208.323C158.957 208.456 157.809 208.866 157.124 209.233C156.439 209.6 155.55 209.901 155.149 209.901C154.748 209.901 154.064 210.151 153.631 210.457C153.197 210.763 151.996 211.11 150.961 211.228C149.926 211.346 148.677 211.643 148.186 211.89C147.695 212.136 146.248 212.451 144.97 212.59C143.692 212.729 141.844 213.086 140.861 213.382C138.832 213.996 130.312 214.131 79.4029 214.354C52.6067 214.471 49.2391 214.549 48.0046 215.074C47.2437 215.398 46.3487 215.663 46.0164 215.663C45.3564 215.663 43.4925 217.445 43.4925 218.076C43.4925 218.292 43.2512 218.562 42.9558 218.675C41.2666 219.329 42.8181 223.238 45.6914 225.566C46.545 226.258 47.8614 227.393 48.6169 228.088C49.3723 228.782 50.1305 229.352 50.3016 229.352C50.4727 229.352 50.7851 229.676 50.9958 230.071C51.2065 230.468 51.5334 230.792 51.7234 230.792C51.9125 230.792 52.3735 231.075 52.7463 231.422C53.1191 231.769 54.0195 232.458 54.7462 232.953C55.4728 233.449 56.3291 234.137 56.6479 234.484C56.9675 234.83 57.4205 235.115 57.6555 235.115C58.0535 235.115 59.0935 235.888 60.681 237.366C61.0528 237.712 61.5742 237.996 61.8389 237.996C62.1027 237.996 62.6106 238.321 62.9663 238.716C63.3219 239.113 63.8073 239.437 64.045 239.437C64.2827 239.437 64.8734 239.751 65.3578 240.135C65.8423 240.519 66.6563 240.938 67.1668 241.068C67.6774 241.197 68.1825 241.531 68.2888 241.811C68.395 242.09 68.7867 242.318 69.1595 242.318C69.5323 242.318 70.2337 242.632 70.7172 243.016C71.2017 243.4 72.0211 243.821 72.5379 243.952C73.0548 244.083 73.6563 244.407 73.8742 244.672C74.0921 244.937 74.7818 245.264 75.4076 245.397C76.0325 245.53 76.7853 245.847 77.0797 246.1C77.3751 246.354 78.1783 246.678 78.8662 246.821C79.5541 246.964 80.3582 247.291 80.6527 247.548C80.948 247.804 81.8656 248.196 82.6922 248.418C83.5197 248.64 84.2841 248.965 84.3913 249.14C84.4994 249.316 85.2701 249.572 86.1039 249.711C86.9386 249.849 88.2956 250.269 89.1195 250.643C89.9443 251.018 90.9312 251.323 91.3139 251.323C91.6965 251.323 92.7104 251.644 93.5668 252.036C94.4231 252.428 95.6071 252.756 96.196 252.764C96.7858 252.773 97.969 253.101 98.8262 253.493C99.6825 253.884 100.934 254.205 101.607 254.205C102.279 254.205 103.427 254.466 104.158 254.784C104.972 255.139 107.256 255.48 110.054 255.661C112.566 255.824 115.219 256.161 115.95 256.41C117.828 257.05 136.783 257.087 138.549 256.455C139.242 256.206 141.358 255.855 143.251 255.674C145.143 255.494 147.001 255.178 147.381 254.974C147.76 254.77 149.404 254.434 151.035 254.227C152.665 254.021 154.191 253.692 154.426 253.496C154.66 253.3 155.973 252.979 157.344 252.783C158.714 252.587 160.425 252.178 161.146 251.875C161.866 251.571 162.825 251.323 163.276 251.323C163.728 251.323 164.697 250.999 165.431 250.603C166.164 250.207 167.048 249.883 167.395 249.883C167.743 249.883 168.589 249.58 169.275 249.208C169.961 248.838 171.195 248.421 172.018 248.28C172.841 248.14 173.696 247.805 173.916 247.536C174.138 247.268 174.775 246.946 175.332 246.823C175.888 246.7 176.956 246.284 177.706 245.9C178.454 245.515 179.288 245.2 179.559 245.2C179.831 245.2 180.462 244.876 180.961 244.479C181.461 244.084 182.15 243.76 182.493 243.76C182.835 243.76 183.311 243.523 183.548 243.233C183.787 242.943 184.329 242.597 184.754 242.463C185.178 242.329 185.909 241.918 186.378 241.548C186.847 241.18 187.449 240.878 187.717 240.878C187.986 240.878 188.527 240.554 188.92 240.157C189.313 239.761 189.917 239.437 190.263 239.437C190.609 239.437 191.093 239.113 191.338 238.716C191.584 238.321 192.106 237.996 192.5 237.996C192.893 237.996 193.49 237.672 193.827 237.276C194.163 236.879 194.619 236.555 194.84 236.555C195.061 236.555 195.532 236.231 195.888 235.834C196.244 235.439 196.725 235.115 196.96 235.115C197.194 235.115 197.676 234.791 198.032 234.394C198.388 233.998 198.884 233.674 199.135 233.674C199.386 233.674 199.693 233.349 199.818 232.953C199.943 232.557 200.212 232.233 200.416 232.233C200.62 232.233 201.265 231.828 201.849 231.332C202.432 230.837 203.139 230.432 203.418 230.432C203.698 230.432 203.927 230.188 203.927 229.892C203.927 229.594 204.168 229.352 204.46 229.352C204.754 229.352 205.194 229.027 205.44 228.631C205.685 228.234 206.015 227.91 206.174 227.91C206.61 227.91 210.001 224.4 210.001 223.948C210.001 223.731 210.425 223.158 210.942 222.675L211.881 221.798L211.031 221.077L210.181 220.356L211.074 219.631L211.967 218.906L211.074 218.171L210.181 217.436L210.984 216.866C211.626 216.411 211.788 215.95 211.788 214.583C211.788 213.208 211.63 212.762 210.984 212.325L210.181 211.78L210.984 210.907L211.788 210.034V178.81C211.788 160.882 211.653 147.586 211.471 147.586C211.297 147.586 211.09 148.739 211.011 150.147Z" fill="#435BFF"/>
<path fill-rule="evenodd" clip-rule="evenodd" d="M117.629 0.219839C116.249 0.362348 114.907 0.612873 114.646 0.775351C114.385 0.937829 112.335 1.20923 110.092 1.37806C107.849 1.54689 105.665 1.87276 105.239 2.10241C104.814 2.33296 103.198 2.66337 101.652 2.83764C100.104 3.01283 98.4847 3.37682 98.0525 3.64822C97.6212 3.91962 96.3101 4.2473 95.1396 4.3771C93.9681 4.506 92.7624 4.82732 92.459 5.09146C92.1564 5.3556 91.1848 5.68328 90.3006 5.81853C89.4164 5.95378 88.3674 6.27874 87.9703 6.54106C87.5723 6.80339 86.5827 7.13106 85.7696 7.26903C84.9565 7.40791 83.9958 7.74739 83.6338 8.02424C83.2718 8.30018 82.7342 8.53346 82.4398 8.54163C82.1444 8.5498 81.099 8.95463 80.1167 9.44207C79.1343 9.9295 78.1339 10.3334 77.8944 10.3389C77.4748 10.3498 74.9716 11.4944 73.864 12.1806C73.5687 12.364 72.9258 12.6753 72.4341 12.8723C71.9434 13.0701 71.3005 13.3942 71.0051 13.593C70.7107 13.7918 70.0669 14.1158 69.5761 14.3137C69.0845 14.5107 68.4416 14.8338 68.1471 15.0308C67.8518 15.2287 67.0081 15.6516 66.2706 15.9712C65.5341 16.2907 64.9308 16.681 64.9308 16.838C64.9308 16.995 64.4887 17.3082 63.9484 17.5333C63.4081 17.7584 62.3222 18.3357 61.5361 18.815C60.75 19.2951 59.6398 19.9541 59.0689 20.28C58.4971 20.6059 57.8542 21.0189 57.639 21.1968C55.7895 22.7281 52.909 24.7831 52.3715 24.9556C52.0077 25.0717 51.7105 25.3223 51.7105 25.512C51.7105 25.7017 51.308 26.0112 50.8173 26.1991C50.3257 26.3879 49.9232 26.6847 49.9232 26.8599C49.9232 27.0342 49.0795 27.7731 48.0476 28.5001C44.7447 30.8293 35.1947 40.0061 31.5218 44.3822C30.7357 45.3189 29.7308 46.4817 29.2887 46.9664C28.8466 47.4511 28.4846 47.9721 28.4846 48.1246C28.4846 48.2762 27.9183 49.0377 27.2267 49.8166C26.5352 50.5954 25.5348 51.8816 25.0035 52.674C24.4723 53.4664 23.6691 54.601 23.2189 55.1956C22.0033 56.7977 21.9502 56.8748 20.9723 58.437C19.4298 60.8996 19.2083 61.2817 18.5672 62.5788C18.2241 63.2723 17.8595 63.9213 17.7568 64.0202C16.9932 64.7555 11.3331 75.6315 11.3331 76.3622C11.3331 76.6827 9.85276 80.0902 9.02796 81.6696C8.76864 82.1652 8.43818 83.1373 8.2914 83.8308C8.14553 84.5243 7.80517 85.4111 7.53594 85.8023C7.26581 86.1926 7.0452 86.9251 7.0452 87.428C7.0452 87.9318 6.72374 88.9493 6.33115 89.6882C5.93766 90.427 5.6162 91.3511 5.6162 91.7405C5.6162 92.1299 5.29475 93.2718 4.90125 94.2766C4.50866 95.2823 4.18721 96.5032 4.18721 96.9897C4.18721 97.4772 3.87656 98.8087 3.49747 99.9488C3.11839 101.088 2.69788 103.075 2.56372 104.362C2.42865 105.65 2.15762 107.013 1.96042 107.389C1.62276 108.036 1.12031 112.638 0.175754 123.748C-0.319487 129.578 0.157746 131.653 2.56372 134.128C4.44563 136.064 5.70535 136.168 25.3016 136.003L39.8067 135.879L41.4203 134.546C43.9055 132.493 44.4458 130.566 44.887 122.192C45.1175 117.83 45.4426 114.826 45.7838 113.907C46.0783 113.115 46.3259 111.975 46.3349 111.374C46.343 110.772 46.6717 109.358 47.0652 108.231C47.4578 107.103 47.781 105.813 47.7819 105.361C47.7828 104.911 48.0403 104.056 48.3528 103.462C48.6661 102.867 49.1326 101.652 49.3901 100.76C50.1573 98.1016 51.1451 95.5683 51.607 95.0754C51.8447 94.8212 52.1436 94.0515 52.2715 93.3644C52.3994 92.6772 52.6344 92.1154 52.7938 92.1154C52.9531 92.1154 53.2809 91.5081 53.5204 90.7647C53.7608 90.0222 54.0553 89.3333 54.1741 89.2343C54.6217 88.8604 55.9696 86.7636 56.5153 85.5908C57.2734 83.9615 58.2018 82.4048 58.8564 81.665C59.1509 81.3319 59.7136 80.5994 60.1071 80.0366C60.4997 79.4747 61.1831 78.5752 61.6253 78.0388C62.0683 77.5023 62.4293 76.9804 62.4293 76.8796C62.4293 76.286 71.7777 66.6353 74.5375 64.3806C75.3858 63.6871 76.3447 62.8711 76.6689 62.567C76.993 62.2629 77.9817 61.5422 78.866 60.9649C79.7502 60.3876 80.6353 59.7432 80.8316 59.5317C81.0279 59.3211 81.5907 58.9371 82.0823 58.6784C83.8508 57.748 85.1528 56.9629 87.1212 55.6404C88.2224 54.9006 89.3687 54.2942 89.6685 54.2942C89.9675 54.2942 90.4123 54.0528 90.6554 53.7569C90.8994 53.461 91.7224 53.0498 92.486 52.8428C93.2486 52.6359 93.8736 52.3282 93.8736 52.1593C93.8736 51.9914 94.4769 51.7409 95.2134 51.6029C95.9509 51.4649 96.8153 51.1155 97.134 50.8268C97.4537 50.5382 98.3379 50.2023 99.0997 50.0816C99.8606 49.9609 101.045 49.5624 101.729 49.1966C102.414 48.8308 103.298 48.5303 103.695 48.5294C104.091 48.5276 104.859 48.2934 105.403 48.0075C105.947 47.7216 107.621 47.3149 109.123 47.1043C110.626 46.8938 112.071 46.5416 112.334 46.321C112.597 46.1013 114.943 45.7818 117.546 45.6112C120.15 45.4414 122.762 45.1955 123.352 45.0647C123.942 44.934 143.893 44.7289 167.687 44.6082L210.95 44.3894L212.173 43.1604C216.234 39.0803 215.965 34.618 211.455 31.2441C210.558 30.5724 209.662 29.8444 209.466 29.6266C208.534 28.5954 203.087 24.3982 202.679 24.3982C202.425 24.3982 202.124 24.155 202.012 23.8582C201.898 23.5604 201.565 23.3181 201.271 23.3181C200.977 23.3181 200.571 23.0067 200.369 22.6264C200.168 22.2461 199.519 21.8285 198.928 21.6978C198.336 21.5662 197.853 21.3375 197.853 21.1886C197.853 20.8573 194.499 18.6353 194 18.6353C193.802 18.6353 193.552 18.4011 193.443 18.1142C193.334 17.8283 192.674 17.4861 191.975 17.3545C191.278 17.222 190.707 16.9723 190.707 16.799C190.707 16.6256 190.184 16.2416 189.545 15.9457C188.374 15.4029 187.699 15.0135 186.054 13.9279C185.559 13.6012 184.756 13.2099 184.268 13.0602C183.781 12.9095 183.14 12.5764 182.845 12.3195C182.55 12.0626 181.666 11.734 180.88 11.5897C180.094 11.4454 179.068 11.026 178.598 10.6584C178.13 10.2908 177.526 9.99032 177.258 9.99032C176.989 9.99032 176.168 9.66627 175.435 9.2696C174.701 8.87385 173.898 8.5498 173.649 8.5498C173.399 8.5498 172.595 8.22575 171.862 7.82909C171.128 7.43333 170.12 7.10837 169.62 7.10837C169.12 7.10837 168.362 6.86238 167.936 6.56103C167.51 6.25967 166.469 5.86664 165.623 5.68782C164.778 5.509 163.443 5.11416 162.657 4.81098C161.871 4.5069 160.661 4.25184 159.968 4.24276C159.274 4.23459 158.352 3.97681 157.918 3.67001C157.483 3.3632 155.961 2.96291 154.533 2.78046C153.105 2.59801 151.059 2.20044 149.983 1.89727C148.909 1.5941 146.88 1.34538 145.473 1.34538C144.023 1.34538 142.239 1.09668 141.352 0.770811C139.602 0.127252 122.389 -0.272134 117.629 0.219839ZM137.466 1.34266C139.137 1.51876 141.951 1.76837 143.719 1.89818C145.488 2.02707 147.739 2.35021 148.722 2.61617C149.704 2.88121 151.554 3.21071 152.831 3.34686C154.108 3.48393 155.555 3.75805 156.047 3.95502C156.538 4.1529 157.905 4.5296 159.084 4.79192C162.459 5.5435 166.184 6.60187 167 7.04211C167.41 7.26359 168.37 7.60397 169.132 7.79913C171.115 8.30562 174.144 9.43935 174.694 9.88049C174.952 10.0874 175.75 10.3634 176.467 10.4932C177.184 10.623 177.959 10.9579 178.189 11.2375C178.419 11.5162 179.112 11.8565 179.729 11.9936C180.346 12.1298 181.42 12.5273 182.116 12.8759C182.813 13.2254 184.266 13.9533 185.346 14.4934C186.428 15.0344 187.955 15.8622 188.741 16.3333C189.527 16.8035 190.653 17.4407 191.242 17.7493C191.832 18.057 193.44 19.0256 194.815 19.9024C196.191 20.7783 197.799 21.7659 198.388 22.0972C198.978 22.4285 200.232 23.2845 201.175 23.9988C205.122 26.9906 208.431 29.5894 208.98 30.1267C209.303 30.4426 210.315 31.3294 211.229 32.0964C215.105 35.3505 215.229 39.9735 211.518 42.8581L210.243 43.8493L166.083 43.8757C141.795 43.8893 121.119 44.0363 120.137 44.2006C119.153 44.3649 116.554 44.7552 114.359 45.0684C112.165 45.3815 109.994 45.8018 109.536 46.0015C109.077 46.2012 107.818 46.5143 106.737 46.6977C104.782 47.029 102.173 47.836 100.126 48.7427C99.5373 49.0042 98.3784 49.3918 97.5509 49.6051C96.7243 49.8175 95.9617 50.1315 95.8572 50.3022C95.7528 50.4728 95.2233 50.7188 94.6812 50.8477C93.7889 51.061 91.31 52.1385 89.9431 52.9091C89.6487 53.0743 88.8041 53.4719 88.0675 53.7914C87.3301 54.1118 86.7268 54.5012 86.7268 54.6591C86.7268 54.8162 86.2847 55.132 85.7444 55.3608C84.1308 56.0443 82.4254 57.0673 81.0522 58.1765C80.3418 58.7501 79.3576 59.4327 78.866 59.6914C78.3752 59.951 77.844 60.3822 77.6873 60.6509C77.5297 60.9186 77.2037 61.1383 76.9624 61.1383C76.7211 61.1383 76.2628 61.4224 75.9449 61.7691C75.6262 62.1159 74.9067 62.7722 74.3466 63.2287C70.3631 66.4719 64.3257 72.5327 62.2511 75.371C61.8576 75.9084 61.2552 76.6091 60.9112 76.9277C60.5672 77.2463 60.2854 77.7193 60.2854 77.9789C60.2854 78.2385 60.0594 78.538 59.7821 78.6451C59.5056 78.7522 59.0824 79.3186 58.842 79.9032C58.6025 80.4877 58.2252 81.0841 58.0055 81.2284C57.3977 81.626 56.1326 83.5539 55.821 84.5588C55.6689 85.0498 55.4447 85.5327 55.3231 85.6317C54.8567 86.0129 53.1395 88.7514 53.1395 89.1145C53.1395 89.3251 52.8163 89.9106 52.4219 90.4171C52.0266 90.9226 51.6052 91.8322 51.4854 92.4385C51.3648 93.0439 51.0487 93.722 50.7831 93.9444C50.5175 94.1668 50.1906 94.9365 50.0564 95.6545C49.9232 96.3725 49.5972 97.1785 49.3325 97.4454C49.0686 97.7113 48.7517 98.5637 48.6283 99.3379C48.5059 100.113 48.1916 100.925 47.9314 101.143C47.6703 101.361 47.3497 102.296 47.2173 103.221C47.0859 104.146 46.768 105.145 46.5123 105.443C46.2566 105.74 45.936 107.037 45.801 108.324C45.6659 109.612 45.321 111.042 45.0347 111.502C44.7258 111.999 44.4386 113.68 44.3269 115.644C44.2243 117.463 43.9244 119.599 43.6615 120.391C43.3986 121.184 43.1032 123.98 43.006 126.606C42.8061 131.996 42.4991 132.713 39.7401 134.235C37.7384 135.339 5.47394 135.277 4.85894 134.169C4.66624 133.822 4.33398 133.538 4.12058 133.538C2.07928 133.538 0.813266 116.683 2.58623 113.101C2.89238 112.481 3.22734 110.457 3.3552 108.453C3.47946 106.501 3.73519 104.8 3.92428 104.676C4.33038 104.408 4.86434 101.828 4.88595 100.026C4.89495 99.3252 5.22361 98.1153 5.6162 97.3383C6.00969 96.5613 6.33115 95.2832 6.33115 94.499C6.33115 93.7147 6.57697 92.7989 6.87772 92.463C7.17846 92.1281 7.52243 91.0216 7.64219 90.0041C7.76195 88.9856 7.98255 88.1533 8.13202 88.1533C8.51561 88.1533 9.18914 86.0782 9.18914 84.8964C9.18914 84.3527 9.42145 83.8181 9.70599 83.7083C9.98963 83.5984 10.3345 82.8922 10.4723 82.1388C10.61 81.3854 11.0206 80.3824 11.3853 79.9104C11.75 79.4375 12.048 78.587 12.048 78.0188C12.048 77.4515 12.3695 76.6627 12.763 76.2669C13.1556 75.8703 13.477 75.1768 13.477 74.7257C13.477 74.2745 13.7985 73.6282 14.192 73.2888C14.5846 72.9493 14.9069 72.3012 14.9069 71.8482C14.9069 71.3944 15.2284 70.7463 15.621 70.4068C16.0145 70.0682 16.3359 69.4192 16.3359 68.9663C16.3359 68.5134 16.6574 67.8643 17.0509 67.5258C17.4435 67.1863 17.7649 66.6889 17.7649 66.4211C17.7649 66.1524 18.0864 65.6396 18.4799 65.281C18.8725 64.9225 19.1939 64.3552 19.1939 64.0202C19.1939 63.6853 19.5163 63.118 19.9089 62.7594C20.3024 62.4009 20.6238 61.8336 20.6238 61.4987C20.6238 61.1637 20.9453 60.5964 21.3379 60.2379C21.7313 59.8793 22.0528 59.3683 22.0528 59.1014C22.0528 58.8355 22.2212 58.6167 22.4274 58.6167C22.6336 58.6167 22.9956 58.1638 23.2315 57.6101C23.4674 57.0564 23.8591 56.3674 24.1022 56.0797C25.5672 54.3396 26.3407 53.2422 26.3407 52.9064C26.3407 52.6949 26.6297 52.2319 26.9827 51.877C27.3357 51.523 28.3325 50.3412 29.1996 49.252C30.0658 48.1627 31.0635 46.9809 31.4165 46.626C31.7685 46.272 32.0576 45.8163 32.0576 45.613C32.0576 45.1982 44.0568 32.996 44.9762 32.4768C45.6362 32.1037 47.7513 30.3173 49.9565 28.2705C50.7561 27.5271 51.5286 26.9198 51.6718 26.9198C51.815 26.9198 52.2445 26.6357 52.6254 26.289C53.0063 25.9422 54.0418 25.1734 54.926 24.5798C55.8102 23.9852 56.6629 23.2963 56.8196 23.0485C56.9772 22.8007 57.3383 22.5974 57.6237 22.5974C57.9083 22.5974 58.4251 22.3132 58.7718 21.9665C59.1184 21.6198 59.8019 21.126 60.2908 20.8691C60.7788 20.6113 61.8225 20.0077 62.6085 19.5257C63.3946 19.0446 64.5598 18.3738 65.1991 18.0353C65.8375 17.6976 66.3598 17.3064 66.3598 17.1666C66.3598 17.0268 66.7893 16.8035 67.3142 16.671C67.8392 16.5376 68.6649 16.1155 69.1493 15.7315C69.6338 15.3476 70.2641 15.0335 70.5504 15.0335C70.8367 15.0335 71.4797 14.7085 71.9794 14.3128C72.4791 13.9161 73.123 13.5921 73.4093 13.5921C73.6956 13.5921 74.3385 13.268 74.8383 12.8723C75.338 12.4756 75.9891 12.1516 76.2844 12.1516C76.5806 12.1516 77.5639 11.8103 78.4698 11.3918C81.8788 9.82058 82.3002 9.63995 83.8688 9.06809C84.753 8.74586 86.2207 8.26841 87.1311 8.00699C88.0414 7.74558 89.2795 7.27448 89.8828 6.96042C90.4861 6.64545 91.3028 6.38857 91.699 6.38857C92.0943 6.38857 93.2333 6.06452 94.231 5.66785C95.2278 5.2721 96.4389 4.94714 96.9224 4.94714C97.406 4.94714 98.726 4.63761 99.857 4.26001C100.988 3.8815 103.022 3.4694 104.377 3.34414C105.732 3.21797 107.138 2.95564 107.501 2.75958C108.243 2.35928 117.214 1.38079 123.71 0.990475C128.28 0.71635 132.547 0.825274 137.466 1.34266ZM123.496 61.1111C120.762 61.2282 118.419 61.495 118.137 61.7229C117.86 61.9452 116.436 62.2421 114.971 62.3818C113.506 62.5225 111.898 62.8484 111.398 63.1062C110.898 63.364 109.766 63.6962 108.883 63.8441C108 63.9921 106.716 64.416 106.029 64.7872C105.343 65.1576 104.403 65.4608 103.94 65.4608C103.477 65.4608 102.689 65.7848 102.189 66.1815C101.689 66.5772 101.046 66.9013 100.76 66.9013C100.474 66.9013 99.8309 67.2262 99.3311 67.622C98.8314 68.0187 98.147 68.3427 97.8103 68.3427C97.4744 68.3427 96.8279 68.6667 96.375 69.0625C95.9211 69.4592 95.3467 69.7832 95.0973 69.7832C94.6128 69.7832 90.1412 72.6443 89.1985 73.5574C88.8869 73.8588 88.4502 74.1057 88.2287 74.1057C88.0063 74.1057 87.6524 74.4297 87.4417 74.8264C87.231 75.2222 86.8411 75.5462 86.5746 75.5462C85.4887 75.5462 74.5781 86.6292 74.5781 87.733C74.5781 87.9445 74.3773 88.2468 74.1305 88.4056C73.7434 88.6552 72.7547 90.0867 71.5328 92.1689C71.341 92.4948 70.7017 93.476 70.1119 94.3474C69.5221 95.2197 68.6928 96.6548 68.2687 97.5361C65.4413 103.414 64.5724 105.4 64.5616 106.01C64.5544 106.392 64.2383 107.352 63.8593 108.144C63.4793 108.937 63.1632 110.025 63.156 110.563C63.1497 111.1 62.8454 112.315 62.4807 113.264C62.1151 114.212 61.7108 116.421 61.582 118.172C61.4542 119.924 61.2111 121.626 61.0436 121.954C59.2004 125.566 60.7194 132.643 63.7998 134.797L65.3486 135.879L80.4147 136.001C97.1737 136.135 100.202 135.985 101.444 134.962C104.003 132.852 104.7 131.133 105.306 125.449C105.524 123.408 105.903 121.622 106.185 121.306C106.458 121.001 106.796 120.265 106.935 119.67C107.076 119.077 107.391 118.347 107.636 118.05C107.881 117.752 108.185 117.165 108.312 116.745C108.728 115.365 114.003 109.766 114.886 109.766C115.044 109.766 115.718 109.36 116.385 108.865C117.051 108.37 117.874 107.964 118.215 107.964C118.555 107.964 119.047 107.751 119.306 107.491C121.123 105.668 120.837 105.676 187.009 105.462L248.523 105.262L249.539 104.182C251.88 101.696 252.935 97.3147 251.618 95.5583C251.329 95.1743 251.093 94.3574 251.093 93.7438C251.093 93.1302 250.771 91.9919 250.378 91.2149C249.985 90.4379 249.663 89.3904 249.662 88.8876C249.662 88.3847 249.34 87.4425 248.948 86.7935C248.555 86.1454 248.235 85.235 248.235 84.7712C248.235 84.3073 247.938 83.5412 247.575 83.0692C247.212 82.5963 246.817 81.5824 246.697 80.8145C246.576 80.0475 246.248 79.1552 245.967 78.8339C245.686 78.5117 245.347 77.732 245.214 77.102C245.081 76.4721 244.742 75.7632 244.459 75.5272C244.177 75.2912 243.947 74.8155 243.947 74.4706C243.947 74.1248 243.625 73.4304 243.232 72.9266C242.838 72.4228 242.517 71.7747 242.517 71.4861C242.517 71.1974 242.205 70.562 241.825 70.0737C241.444 69.5854 241.024 68.7512 240.892 68.2202C240.759 67.6892 240.506 67.1645 240.328 67.0538C240.151 66.943 239.791 66.3367 239.53 65.7067C238.853 64.0756 235.906 61.2645 234.595 61.0003C233.224 60.7235 130.149 60.827 123.496 61.1111ZM235.399 62.2784C236.155 62.7068 237.23 63.639 237.787 64.3497C239.175 66.1207 246.447 81.0287 246.447 82.1034C246.447 82.3658 246.77 83.1854 247.162 83.9252C247.556 84.6641 247.877 85.4692 247.877 85.7134C247.877 85.9584 248.18 86.9723 248.551 87.9663C249.157 89.5929 249.853 91.854 251.122 96.3262C251.894 99.0447 250.896 102.213 248.746 103.865L247.395 104.902L185.304 104.758C130.539 104.63 123.116 104.677 122.39 105.154C121.937 105.451 120.923 105.813 120.137 105.96C119.351 106.105 118.465 106.434 118.171 106.691C117.877 106.948 117.233 107.281 116.742 107.431C116.25 107.581 115.446 108.007 114.956 108.38C114.464 108.753 113.692 109.338 113.24 109.681C110.876 111.478 109.806 112.57 108.612 114.407C107.889 115.519 107.187 116.51 107.052 116.609C106.608 116.935 104.983 120.93 104.738 122.295C104.607 123.032 104.331 123.957 104.125 124.353C103.92 124.75 103.64 126.553 103.503 128.36C103.234 131.915 102.982 132.383 100.382 134.169L99.2015 134.979L83.0485 134.974C69.6157 134.97 66.7461 134.881 66.0032 134.448C65.5116 134.161 64.8921 133.816 64.6273 133.68C62.5464 132.616 62.4293 132.16 62.4293 125.097C62.4293 119.283 62.5149 118.3 63.1362 116.918C63.5306 116.043 63.8475 114.551 63.8538 113.547C63.8601 112.367 64.1087 111.374 64.5733 110.666C64.9641 110.071 65.2846 109.052 65.2855 108.399C65.2873 107.748 65.5944 106.776 65.969 106.238C66.3445 105.702 66.7533 104.655 66.8793 103.912C67.0045 103.169 67.2548 102.561 67.4349 102.561C67.615 102.561 67.9301 101.932 68.1354 101.162C68.3407 100.393 68.7495 99.563 69.0422 99.3171C69.3357 99.072 69.5761 98.5918 69.5761 98.2496C69.5761 97.9083 69.8976 97.2548 70.2902 96.7982C70.6837 96.3416 71.0051 95.6663 71.0051 95.2987C71.0051 94.9311 71.3266 94.3519 71.7201 94.0134C72.1127 93.6739 72.4341 93.2146 72.4341 92.9922C72.4341 92.7689 72.7565 92.2942 73.1491 91.9356C73.5426 91.5771 73.864 91.0715 73.864 90.8128C73.864 90.5541 74.1522 90.0522 74.5051 89.6982C74.8581 89.3442 75.8603 88.1623 76.7328 87.0731C78.811 84.4762 87.0554 76.2669 87.5858 76.2669C87.8118 76.2669 88.2593 75.9828 88.5781 75.6361C88.8977 75.2893 89.754 74.6013 90.4807 74.1057C91.2074 73.6101 92.1069 72.9211 92.4806 72.5744C92.8534 72.2277 93.3783 71.9445 93.6466 71.9445C93.915 71.9445 94.5435 71.6204 95.0432 71.2238C95.543 70.828 96.1057 70.5039 96.2939 70.5039C96.4821 70.5039 97.0188 70.2044 97.4879 69.8377C97.9561 69.4719 98.8224 69.0543 99.4121 68.91C100.002 68.7648 100.725 68.4462 101.019 68.2011C101.315 67.9569 102.762 67.3061 104.236 66.7551C105.71 66.2051 107.398 65.5261 107.988 65.2465C108.577 64.9679 109.864 64.6393 110.846 64.5167C111.828 64.3942 112.967 64.0847 113.375 63.8287C113.784 63.5727 115.941 63.1797 118.17 62.9555C120.398 62.7304 122.396 62.4327 122.608 62.2929C123.102 61.9688 154.369 61.6757 199.055 61.5767L234.023 61.4987L235.399 62.2784ZM217.062 121.986C213.088 122.545 211.585 125.475 211.298 133.224C211.184 136.319 210.922 139.299 210.715 139.843C210.51 140.388 210.243 142.07 210.121 143.579C209.999 145.09 209.601 147.101 209.236 148.05C208.871 148.998 208.572 150.297 208.572 150.936C208.572 151.576 208.251 152.704 207.857 153.443C207.465 154.183 207.141 155.152 207.141 155.599C207.14 156.046 206.819 156.897 206.428 157.492C206.038 158.086 205.717 158.898 205.716 159.298C205.714 159.697 205.392 160.629 204.999 161.367C204.606 162.107 204.284 162.89 204.284 163.107C204.284 163.324 203.963 163.914 203.569 164.417C203.177 164.921 202.855 165.614 202.855 165.956C202.855 166.299 202.534 166.992 202.14 167.495C201.748 167.999 201.425 168.649 201.425 168.94C201.425 169.232 201.175 169.679 200.869 169.935C200.563 170.192 200.084 170.9 199.805 171.511C199.188 172.857 198.643 173.732 197.585 175.076C197.142 175.637 196.781 176.246 196.781 176.43C196.781 176.612 196.499 177.062 196.155 177.427C195.811 177.794 195.209 178.553 194.815 179.116C194.423 179.678 193.739 180.577 193.297 181.114C192.855 181.65 192.493 182.158 192.493 182.243C192.493 182.882 181.085 194.412 180.452 194.412C180.351 194.412 179.833 194.776 179.301 195.222C178.769 195.668 177.877 196.357 177.319 196.753C176.762 197.149 176.016 197.749 175.664 198.085C175.311 198.421 174.572 198.953 174.021 199.267C173.47 199.58 172.537 200.152 171.947 200.537C170.282 201.626 168.5 202.621 167.034 203.282C166.298 203.614 165.694 204.024 165.694 204.192C165.694 204.36 165.477 204.498 165.212 204.498C164.946 204.498 163.973 204.903 163.049 205.398C162.125 205.893 161.155 206.299 160.895 206.299C160.635 206.299 160.225 206.537 159.985 206.83C159.744 207.121 158.961 207.469 158.244 207.602C157.526 207.735 156.379 208.145 155.695 208.512C155.01 208.879 154.125 209.181 153.729 209.182C153.333 209.183 152.541 209.431 151.967 209.732C151.394 210.034 149.813 210.439 148.455 210.634C147.096 210.828 145.691 211.145 145.332 211.339C144.973 211.532 143.097 211.866 141.162 212.081C139.228 212.295 137.002 212.633 136.216 212.834C135.311 213.064 118.911 213.257 91.5513 213.36C41.8336 213.547 45.8667 213.356 43.5246 215.632C40.4785 218.591 40.4046 222.364 43.3338 225.306C45.7929 227.775 55.9084 235.834 56.5486 235.834C56.671 235.834 57.4409 236.381 58.2603 237.048C59.0797 237.715 60.1413 238.467 60.6204 238.717C61.0994 238.969 61.6622 239.316 61.8711 239.49C62.8228 240.284 64.9353 241.55 65.6979 241.784C66.1608 241.927 66.7803 242.254 67.0747 242.513C67.3692 242.771 68.0544 243.094 68.5965 243.23C69.1394 243.367 69.6635 243.61 69.7616 243.771C69.9246 244.036 71.3437 244.757 76.0314 246.956C76.9282 247.377 77.9133 247.721 78.2203 247.721C78.5274 247.721 78.9704 247.954 79.2045 248.238C79.4386 248.523 80.1392 248.868 80.7614 249.006C81.3836 249.144 82.2165 249.462 82.6127 249.714C83.0089 249.966 83.8958 250.288 84.5837 250.429C85.2708 250.571 86.0352 250.849 86.2811 251.049C86.5278 251.25 87.6533 251.625 88.7825 251.885C89.9125 252.145 91.6405 252.618 92.6229 252.938C96.7397 254.276 97.7256 254.55 99.6814 254.897C100.812 255.097 102.054 255.432 102.442 255.642C102.83 255.851 104.799 256.18 106.818 256.374C108.837 256.566 111.051 256.911 111.739 257.139C113.983 257.884 137.44 257.989 140.682 257.27C142.156 256.942 144.729 256.517 146.399 256.325C148.069 256.133 150.16 255.75 151.044 255.475C151.928 255.2 153.537 254.864 154.617 254.73C155.699 254.595 157.065 254.286 157.654 254.042C158.244 253.799 159.596 253.484 160.658 253.342C161.721 253.2 163.039 252.85 163.588 252.564C164.137 252.278 164.882 252.044 165.243 252.044C165.605 252.044 166.496 251.738 167.222 251.364C167.95 250.99 169.133 250.573 169.852 250.437C170.57 250.301 171.497 249.977 171.91 249.717C172.323 249.456 173.249 249.139 173.966 249.013C174.683 248.886 175.45 248.564 175.67 248.297C175.89 248.03 176.717 247.707 177.506 247.58C178.296 247.452 179.033 247.108 179.145 246.815C179.258 246.521 179.645 246.28 180.006 246.28C180.368 246.28 181.374 245.9 182.241 245.435C183.109 244.97 184.122 244.48 184.493 244.346C184.865 244.211 185.811 243.708 186.597 243.225C187.383 242.742 188.509 242.096 189.098 241.79C189.688 241.484 190.814 240.836 191.6 240.35C192.386 239.864 193.672 239.131 194.458 238.72C196.67 237.562 197.573 237.009 197.812 236.664C197.933 236.489 199.88 235.11 202.14 233.599C204.401 232.087 206.813 230.356 207.5 229.752C209.372 228.108 209.493 228.004 211.89 226.017C216.864 221.894 220.681 218.033 225.249 212.505C226.276 211.263 227.325 210.019 227.581 209.742C227.836 209.465 228.368 208.823 228.761 208.315C229.154 207.808 230.077 206.702 230.812 205.856C231.548 205.01 232.247 204.018 232.366 203.652C232.485 203.285 232.848 202.694 233.173 202.338C234.667 200.701 235.371 199.715 235.371 199.262C235.371 198.992 235.572 198.64 235.818 198.482C236.293 198.176 237.152 196.781 238.049 194.862C238.35 194.218 238.738 193.692 238.91 193.692C239.083 193.692 239.329 193.27 239.457 192.755C239.585 192.24 239.971 191.389 240.314 190.864C241.386 189.224 241.793 188.499 242.16 187.568C242.357 187.073 242.679 186.424 242.877 186.128C243.075 185.83 243.41 185.182 243.622 184.686C243.833 184.192 244.314 183.187 244.691 182.454C245.068 181.722 245.376 180.784 245.376 180.372C245.376 179.959 245.613 179.53 245.902 179.418C246.192 179.305 246.537 178.622 246.669 177.898C246.8 177.174 247.206 176.196 247.571 175.723C247.936 175.251 248.235 174.338 248.235 173.696C248.235 173.053 248.472 172.33 248.761 172.087C249.051 171.845 249.382 171.055 249.498 170.333C249.613 169.609 250.02 168.352 250.4 167.538C250.781 166.724 251.093 165.647 251.093 165.145C251.093 164.644 251.411 163.527 251.8 162.664C252.189 161.8 252.51 160.561 252.515 159.911C252.519 159.261 252.768 158.136 253.068 157.413C253.368 156.688 253.76 154.677 253.937 152.942C254.116 151.208 254.432 149.467 254.642 149.072C254.988 148.42 255.382 143.667 255.956 133.178C256.335 126.275 254.26 122.41 249.892 121.881C247.478 121.588 219.246 121.679 217.062 121.986ZM154.205 123.117C153.199 123.78 152.45 124.579 152.311 125.137C152.184 125.646 151.847 126.297 151.563 126.583C151.208 126.941 151.041 127.922 151.036 129.692C151.031 131.114 150.881 132.845 150.703 133.538C149.891 136.696 148.096 140.833 147.041 141.981C146.688 142.365 146.399 142.796 146.399 142.938C146.399 143.345 141.942 147.697 140.808 148.395C140.248 148.741 139.185 149.292 138.449 149.62C137.711 149.949 137.109 150.344 137.109 150.5C137.109 150.657 136.345 150.893 135.412 151.025C134.478 151.158 133.313 151.532 132.821 151.857C132.004 152.398 126.714 152.458 70.2227 152.567L8.51831 152.685L7.31713 153.629C4.29616 156.002 2.99503 160.838 4.71126 163.309C5.0003 163.724 5.34427 164.773 5.47573 165.64C5.6081 166.508 5.91515 167.622 6.15917 168.117C6.40229 168.613 6.72014 169.585 6.86331 170.278C7.00738 170.972 7.32794 171.782 7.57646 172.079C7.82408 172.377 8.14283 173.268 8.2833 174.061C8.42467 174.853 8.75603 175.907 9.01896 176.402C10.0013 178.249 11.3331 181.418 11.3331 181.908C11.3331 182.186 11.6545 182.789 12.048 183.246C12.4406 183.702 12.763 184.351 12.763 184.686C12.763 185.022 13.0844 185.67 13.477 186.128C13.8705 186.584 14.192 187.235 14.192 187.575C14.192 187.914 14.5134 188.604 14.9069 189.107C15.2995 189.611 15.621 190.195 15.621 190.405C15.621 190.922 18.5069 195.132 18.8607 195.132C19.0165 195.132 19.4028 195.394 19.7207 195.714C20.8561 196.858 23.6367 196.916 78.3302 196.922C130.921 196.927 139.002 196.794 140.096 195.904C140.32 195.722 141.548 195.458 142.826 195.318C144.104 195.178 145.483 194.851 145.893 194.589C146.302 194.328 147.382 194.001 148.293 193.863C149.204 193.726 150.125 193.4 150.338 193.141C150.553 192.88 151.365 192.559 152.144 192.426C152.922 192.294 153.786 191.957 154.063 191.677C154.34 191.399 154.763 191.17 155.004 191.17C155.505 191.17 160.065 189.05 160.334 188.691C160.433 188.56 160.966 188.253 161.52 188.007C162.513 187.567 165.6 185.541 169.089 183.039C170.071 182.333 172.644 180.027 174.806 177.913C178.318 174.478 179.224 173.476 181.217 170.819C181.514 170.423 182.485 169.138 183.374 167.965C184.262 166.791 184.989 165.633 184.989 165.391C184.989 165.15 185.221 164.863 185.506 164.753C185.789 164.643 186.129 163.977 186.26 163.274C186.391 162.57 186.639 161.994 186.81 161.994C186.982 161.994 187.371 161.467 187.674 160.824C187.977 160.179 188.459 159.247 188.746 158.752C189.032 158.257 189.269 157.504 189.271 157.079C189.275 156.656 189.503 156.221 189.779 156.114C190.056 156.007 190.399 155.384 190.541 154.729C190.683 154.075 191.008 153.214 191.263 152.814C191.517 152.415 191.842 151.44 191.984 150.647C192.127 149.855 192.451 148.883 192.704 148.486C192.958 148.09 193.277 146.875 193.413 145.785C193.55 144.696 193.89 143.35 194.169 142.794C194.606 141.92 195.429 133.349 195.42 129.756C195.411 126.498 194.296 124.284 191.839 122.651C190.961 122.067 189.495 122.017 173.377 122.019L155.868 122.02L154.205 123.117ZM190.816 123.063C191.64 123.444 192.797 124.266 193.386 124.891L194.458 126.026L194.453 132.213C194.447 138.299 193.843 142.647 192.443 146.685C192.237 147.28 191.902 148.495 191.699 149.387C191.495 150.279 191.109 151.327 190.839 151.719C190.57 152.109 190.349 152.735 190.349 153.11C190.349 153.485 190.041 154.381 189.665 155.102C189.288 155.821 188.444 157.505 187.788 158.843C185.467 163.582 185.175 164.078 182.07 168.546C179.046 172.898 172.907 179.318 169.267 181.936C163.031 186.422 162.708 186.622 158.191 188.85C156.323 189.77 154.234 190.81 153.546 191.162C152.858 191.513 151.733 191.923 151.046 192.073C150.359 192.224 149.314 192.56 148.723 192.82C146.95 193.601 142.876 194.655 138.895 195.364C132.911 196.43 22.3959 196.199 21.3243 195.118C20.939 194.73 20.3024 194.412 19.9089 194.412C19.5163 194.412 19.1939 194.204 19.1939 193.952C19.1939 193.699 18.8725 193.214 18.4799 192.875C18.0864 192.535 17.7649 191.933 17.7649 191.537C17.7649 191.14 17.4435 190.614 17.0509 190.366C16.6574 190.119 16.3359 189.55 16.3359 189.102C16.3359 188.655 16.0145 187.964 15.621 187.568C15.2284 187.172 14.9069 186.523 14.9069 186.128C14.9069 185.731 14.5846 185.083 14.192 184.686C13.7985 184.29 13.477 183.641 13.477 183.246C13.477 182.849 13.1556 182.201 12.763 181.805C12.3695 181.409 12.048 180.687 12.048 180.201C12.048 179.164 11.3493 177.483 10.9189 177.483C10.7541 177.483 10.619 177.018 10.619 176.451C10.619 175.882 10.2976 175.007 9.90409 174.503C9.5106 173.999 9.18914 173.108 9.18914 172.521C9.18914 171.936 8.86769 171.044 8.4751 170.541C8.03388 169.975 7.76015 169.079 7.76015 168.199C7.76015 167.319 7.48641 166.423 7.0452 165.858C6.6526 165.354 6.33115 164.534 6.33115 164.036C6.33115 163.538 6.14386 162.311 5.91425 161.31C5.15518 157.995 6.40679 155.582 9.53941 154.319C11.3853 153.575 18.3628 153.48 92.106 153.203L131.967 153.052L135.042 152.004C144.283 148.852 150.439 141.212 151.518 131.558C152.132 126.059 153.818 123.281 156.94 122.621C159.766 122.024 189.401 122.412 190.816 123.063ZM252.248 123.535C255.791 126.26 256.173 132.663 253.789 149.387C252.823 156.155 249.747 168.492 248.385 171.054C248.106 171.58 247.877 172.274 247.877 172.597C247.877 173.912 242.561 185.538 238.89 192.251C233.275 202.518 221.92 216.358 212.35 224.601C210.596 226.111 208.666 227.807 208.063 228.367C207.458 228.928 206.241 229.867 205.356 230.452C202.859 232.106 202.469 232.372 201.652 232.981C196.042 237.165 187.452 242.086 178.518 246.236C177.613 246.657 176.739 247.001 176.577 247.001C176.415 247.001 175.628 247.295 174.829 247.653C173.244 248.366 170.709 249.287 168.196 250.066C167.311 250.34 165.783 250.824 164.801 251.142C160.51 252.526 159.701 252.743 158.012 252.958C157.029 253.083 155.582 253.405 154.796 253.674C154.01 253.943 152.402 254.264 151.222 254.388C150.044 254.512 148.275 254.836 147.292 255.109C146.31 255.382 144.059 255.773 142.29 255.978C140.522 256.183 138.029 256.531 136.752 256.749C133.844 257.249 117.378 256.952 115.868 256.374C115.293 256.153 112.723 255.836 110.155 255.668C107.282 255.48 104.975 255.141 104.157 254.784C103.427 254.466 102.279 254.205 101.607 254.205C100.934 254.205 99.6823 253.884 98.826 253.493C97.9687 253.1 96.7856 252.773 96.1958 252.764C95.6069 252.756 94.4228 252.428 93.5665 252.036C92.7102 251.644 91.6963 251.323 91.3136 251.323C90.9309 251.323 89.944 251.017 89.1192 250.642C88.2953 250.268 86.9384 249.849 86.1037 249.711C85.2699 249.572 84.4991 249.316 84.391 249.14C84.2839 248.965 83.5194 248.64 82.6919 248.418C81.8653 248.196 80.9478 247.804 80.6524 247.548C80.358 247.291 79.5539 246.964 78.866 246.821C78.178 246.678 77.3748 246.357 77.0795 246.108C76.785 245.86 76.0611 245.541 75.4713 245.4C74.8824 245.259 74.1585 244.932 73.864 244.674C73.5687 244.416 72.9258 244.082 72.4341 243.932C71.9434 243.782 71.1582 243.358 70.6891 242.989C70.2208 242.62 69.532 242.318 69.1592 242.318C68.7865 242.318 68.3948 242.09 68.2885 241.811C68.1822 241.531 67.6771 241.197 67.1666 241.068C66.656 240.938 65.842 240.519 65.3576 240.135C64.8731 239.751 64.2825 239.437 64.0447 239.437C63.807 239.437 63.3217 239.113 62.966 238.716C62.6103 238.32 62.1025 237.995 61.8387 237.995C61.5739 237.995 61.0526 237.712 60.6807 237.365C59.0932 235.888 58.0532 235.114 57.6552 235.114C57.4202 235.114 56.9673 234.83 56.6476 234.484C56.3289 234.137 55.4726 233.449 54.7459 232.953C54.0193 232.458 53.1188 231.769 52.746 231.422C52.3733 231.075 51.9122 230.792 51.7231 230.792C51.5331 230.792 51.2063 230.468 50.9956 230.071C50.7849 229.675 50.4724 229.351 50.3013 229.351C50.1303 229.351 49.3721 228.782 48.6166 228.088C47.8612 227.393 46.5447 226.258 45.6911 225.566C42.8178 223.238 41.2664 219.329 42.9556 218.675C43.2509 218.562 43.4922 218.292 43.4922 218.076C43.4922 217.445 45.3561 215.663 46.0162 215.663C46.3484 215.663 47.2435 215.398 48.0043 215.073C49.2406 214.546 52.6236 214.47 79.9384 214.353C130.756 214.136 138.452 214.01 140.504 213.362C141.486 213.052 143.254 212.692 144.434 212.564C145.613 212.436 147.094 212.119 147.725 211.86C148.356 211.601 149.643 211.275 150.584 211.134C151.525 210.993 152.855 210.577 153.54 210.209C154.225 209.841 155.07 209.54 155.418 209.54C155.765 209.54 156.649 209.216 157.382 208.82C158.116 208.423 158.928 208.099 159.187 208.099C159.445 208.099 160.251 207.786 160.979 207.404C161.705 207.022 163.811 205.961 165.657 205.047C167.504 204.133 169.853 202.825 170.875 202.14C171.899 201.455 172.833 200.895 172.951 200.895C173.33 200.895 178.84 196.889 180.381 195.492C180.709 195.196 181.749 194.304 182.693 193.512C188.111 188.961 195.818 179.985 198.93 174.601C199.331 173.907 199.969 172.854 200.347 172.26C201.248 170.844 205.826 161.453 206.404 159.832C206.652 159.139 207.253 157.519 207.741 156.231C208.228 154.943 208.764 153.13 208.932 152.202C209.099 151.275 209.409 150.191 209.619 149.794C209.83 149.398 210.177 147.81 210.389 146.268C210.602 144.726 210.937 143.16 211.134 142.79C211.33 142.42 211.624 139.249 211.786 135.743C212.134 128.235 212.7 125.757 214.4 124.313C216.706 122.354 216.39 122.384 234.327 122.471L250.97 122.552L252.248 123.535Z" fill="#435BFF"/>
<path fill-rule="evenodd" clip-rule="evenodd" d="M123.352 1.02603C115.575 1.53161 112.858 2.01179 119.243 1.75218C129.724 1.32557 144.712 2.00906 146.199 2.98121C146.604 3.24626 148.383 3.57485 150.151 3.711C152.066 3.85896 153.599 4.16304 153.94 4.46258C154.256 4.73943 155.609 5.06892 156.946 5.19509C158.6 5.35031 159.587 5.63533 160.034 6.08645C160.492 6.54756 161.218 6.74998 162.423 6.74998C163.701 6.74998 164.324 6.93878 164.801 7.46979C165.209 7.92454 165.901 8.1905 166.677 8.1905C167.604 8.1905 167.951 8.3666 168.092 8.91031C168.213 9.37687 168.579 9.63102 169.13 9.63102H169.982V26.3808V43.1297L163.997 43.1624C135.269 43.3194 118.673 43.7351 117.456 44.3297C116.769 44.6664 116.511 44.8534 116.883 44.7472C119.539 43.9856 126.296 43.864 166.262 43.8568L210.244 43.8504L211.518 42.8592C215.229 39.9745 215.105 35.3516 211.229 32.0975C210.315 31.3305 209.303 30.4437 208.98 30.1278C208.431 29.5904 205.122 26.9917 201.175 23.9999C200.232 23.2855 198.978 22.4296 198.388 22.0983C197.799 21.767 196.191 20.7794 194.815 19.9035C193.44 19.0266 191.832 18.0581 191.243 17.7504C190.653 17.4418 189.527 16.8046 188.741 16.3344C187.955 15.8633 186.428 15.0355 185.346 14.4945C184.266 13.9544 182.813 13.2264 182.117 12.877C181.421 12.5284 180.346 12.1308 179.729 11.9947C179.112 11.8576 178.419 11.5172 178.189 11.2386C177.959 10.959 177.184 10.624 176.467 10.4942C175.75 10.3644 174.952 10.0885 174.694 9.88155C174.144 9.44041 171.115 8.30668 169.132 7.80019C168.37 7.60503 167.41 7.26464 167 7.04317C166.184 6.60293 162.459 5.54456 159.084 4.79298C157.905 4.53066 156.538 4.15396 156.047 3.95608C155.555 3.75911 154.108 3.48499 152.831 3.34792C151.554 3.21177 149.704 2.88227 148.722 2.61723C147.739 2.35127 145.488 2.02813 143.719 1.89923C141.951 1.76943 139.137 1.51982 137.467 1.34372C132.33 0.803641 128.199 0.711054 123.352 1.02603ZM112.726 45.1856C113.171 45.2719 113.814 45.2682 114.155 45.1784C114.497 45.0876 114.133 45.0177 113.347 45.0213C112.561 45.0259 112.282 45.0994 112.726 45.1856ZM109.396 45.8582C109.014 46.1696 108.915 46.3139 109.177 46.1796C109.438 46.0443 110.082 45.8029 110.606 45.6431C111.372 45.4098 111.415 45.3463 110.825 45.3218C110.42 45.3045 109.777 45.546 109.396 45.8582ZM178.736 61.8837C186.991 62.0298 195.914 62.3402 198.568 62.5735C201.22 62.8068 205.562 63.1063 208.215 63.2389L213.039 63.4812L213.091 71.0451C213.119 75.2051 213.066 78.3167 212.971 77.959C212.63 76.6601 211.978 77.6141 211.944 79.464C211.906 81.4827 212.235 82.0727 212.827 81.0479C213.115 80.5496 213.198 80.8201 213.207 82.2797C213.212 83.3081 213.072 84.2403 212.894 84.352C212.715 84.4627 212.659 84.2076 212.769 83.7847C212.912 83.23 212.829 83.0621 212.468 83.1838C211.881 83.3807 211.744 87.0869 212.324 87.0524C212.521 87.0415 212.659 86.8 212.632 86.5159C212.605 86.2327 212.726 86.0902 212.901 86.1982C213.313 86.456 213.313 89.8535 212.901 90.1104C212.726 90.2193 212.605 90.1068 212.632 89.8617C212.659 89.6157 212.522 89.4151 212.327 89.4151C212.132 89.4151 211.958 90.1849 211.941 91.1261C211.914 92.5558 212.016 92.8372 212.563 92.8372C213.092 92.8372 213.218 93.1231 213.218 94.3221C213.218 95.6011 213.143 95.7445 212.681 95.3587C212.387 95.1118 212.131 94.9702 212.114 95.0438C211.716 96.7049 211.962 98.6383 212.551 98.483C213.492 98.2352 213.452 99.8873 212.503 100.485C211.975 100.817 211.788 101.325 211.788 102.427C211.788 104.464 213.244 104.345 187.49 104.418L164.801 104.481L193.386 104.785C209.108 104.952 227.692 105.048 234.685 104.997L247.398 104.903L248.747 103.866C250.896 102.213 251.893 99.0449 251.123 96.3273C249.853 91.855 249.157 89.5939 248.551 87.9673C248.18 86.9734 247.877 85.9595 247.877 85.7144C247.877 85.4703 247.556 84.6651 247.162 83.9263C246.77 83.1865 246.447 82.3668 246.447 82.1045C246.447 81.0298 239.176 66.1217 237.787 64.3508C237.231 63.6401 236.155 62.7079 235.399 62.2794L234.023 61.4997L198.876 61.5587C168.892 61.6086 165.934 61.6567 178.736 61.8837ZM211.967 74.8275C211.824 75.0598 211.868 75.412 212.065 75.6099C212.303 75.8505 212.508 75.8296 212.681 75.5473C212.824 75.3149 212.78 74.9627 212.584 74.7639C212.345 74.5243 212.14 74.5452 211.967 74.8275ZM156.94 122.622C153.818 123.282 152.132 126.06 151.518 131.559C150.447 141.136 144.308 148.815 135.204 151.961C132.301 152.965 132.23 152.97 121.923 153.059L111.561 153.149L119.243 153.34C129.662 153.599 135.252 153.348 135.799 152.598C136.029 152.283 136.933 151.929 137.811 151.811C138.688 151.693 139.574 151.367 139.778 151.085C139.981 150.804 140.51 150.458 140.951 150.316C141.392 150.176 141.754 149.828 141.754 149.544C141.754 149.26 141.981 149.028 142.26 149.028C143.275 149.028 148.9 143.605 148.9 142.626C148.9 142.211 149.202 141.828 149.615 141.72C150.132 141.583 150.329 141.228 150.329 140.437C150.329 139.793 150.597 139.15 150.979 138.873C151.395 138.571 151.747 137.626 151.962 136.241C152.145 135.052 152.455 134.129 152.652 134.191C153.213 134.366 153.471 132.91 153.51 129.349C153.542 126.378 153.615 126.041 154.26 125.871C154.653 125.768 154.975 125.424 154.975 125.109C154.975 124.793 155.136 124.534 155.332 124.534C156.113 124.534 155.775 135.994 154.975 136.684C154.582 137.024 154.26 137.47 154.26 137.675C154.26 137.881 154.582 138.251 154.975 138.499C155.516 138.839 155.69 139.339 155.69 140.554C155.69 141.79 155.525 142.248 154.975 142.545C154.053 143.042 154.072 143.536 155.043 144.328L155.826 144.967L155.043 145.389C154.613 145.622 154.26 145.982 154.26 146.192C154.26 146.401 154.613 146.859 155.043 147.21L155.826 147.848L155.043 148.271C154.043 148.81 154.046 149.518 155.052 150.19L155.844 150.72L155.052 151.148C154.044 151.692 154.039 152.486 155.043 153.027L155.826 153.449L155.043 154.088C154.613 154.439 154.26 154.897 154.26 155.106C154.26 155.315 154.613 155.676 155.043 155.909L155.826 156.331L155.043 156.969C154.613 157.321 154.26 157.779 154.26 157.988C154.26 158.197 154.613 158.557 155.043 158.79L155.826 159.212L155.004 159.883C154.207 160.532 154.182 161.634 154.964 161.634C155.536 161.634 155.398 162.713 154.796 162.945C154.501 163.06 154.26 163.384 154.26 163.666C154.26 163.948 154.501 164.272 154.796 164.387C155.091 164.5 155.332 164.8 155.332 165.051C155.332 165.302 155.091 165.711 154.796 165.957C154.342 166.337 154.26 168.035 154.26 177.113C154.26 188.487 154.043 190.091 152.503 190.091C152.154 190.091 151.578 190.415 151.223 190.811C150.804 191.277 150.122 191.531 149.288 191.531C148.416 191.531 147.866 191.749 147.582 192.207C147.27 192.71 146.616 192.922 145.009 193.039C143.671 193.136 142.6 193.428 142.186 193.804C141.704 194.244 140.875 194.413 139.192 194.413C137.912 194.413 136.076 194.69 135.111 195.03C133.596 195.563 131.195 195.675 117.456 195.853L101.556 196.059L118.35 196.043C137.37 196.025 142.744 195.455 148.723 192.821C149.314 192.561 150.359 192.225 151.046 192.074C151.733 191.924 152.858 191.514 153.546 191.163C154.234 190.812 156.324 189.771 158.191 188.851C162.709 186.623 163.031 186.423 169.267 181.937C172.907 179.319 179.046 172.899 182.07 168.547C185.175 164.079 185.467 163.583 187.788 158.844C188.444 157.506 189.289 155.822 189.665 155.103C190.041 154.382 190.349 153.486 190.349 153.111C190.349 152.736 190.57 152.11 190.839 151.72C191.109 151.328 191.496 150.28 191.699 149.388C191.902 148.496 192.237 147.281 192.443 146.686C193.843 142.648 194.447 138.3 194.453 132.214L194.458 126.027L193.386 124.892C190.989 122.352 191.118 122.367 173.486 122.423C164.779 122.449 157.333 122.539 156.94 122.622ZM216.611 122.868C212.984 124.484 212.212 126.545 211.786 135.744C211.624 139.25 211.33 142.421 211.134 142.791C210.937 143.161 210.602 144.727 210.389 146.269C210.177 147.811 209.83 149.399 209.62 149.795C209.409 150.192 209.099 151.276 208.932 152.203C208.764 153.131 208.228 154.944 207.741 156.232C207.253 157.52 206.652 159.14 206.404 159.834C205.826 161.454 201.248 170.845 200.347 172.261C199.969 172.855 199.331 173.908 198.93 174.602C195.818 179.986 188.111 188.962 182.693 193.513C181.749 194.305 180.709 195.197 180.381 195.493C178.694 197.022 173.962 200.426 172.484 201.176C170.549 202.157 167.69 204.136 168.206 204.137C168.506 204.137 169.148 203.856 169.635 203.511C170.534 202.872 171.948 202.038 173.555 201.198C174.047 200.941 174.547 200.591 174.668 200.421C174.789 200.251 175.201 199.923 175.584 199.693C177.785 198.371 178.915 197.546 178.915 197.259C178.915 197.08 179.155 196.934 179.448 196.934C179.741 196.934 180.182 196.61 180.427 196.214C180.672 195.818 181.018 195.493 181.195 195.493C181.615 195.493 185.163 192.487 186.811 190.736C187.517 189.985 188.281 189.37 188.508 189.37C188.735 189.37 188.92 189.232 188.92 189.062C188.92 188.759 189.434 188.138 192.171 185.141C192.937 184.302 193.565 183.456 193.565 183.263C193.565 183.07 193.886 182.738 194.28 182.526C194.672 182.315 194.995 181.909 194.995 181.626C194.995 181.342 195.316 180.938 195.709 180.725C196.102 180.514 196.424 180.142 196.424 179.899C196.424 179.656 196.745 179.256 197.139 179.008C197.531 178.761 197.853 178.342 197.853 178.077C197.853 177.811 198.174 177.302 198.568 176.944C198.96 176.585 199.282 176.079 199.282 175.82C199.282 175.56 199.604 175.175 199.997 174.962C200.39 174.75 200.712 174.257 200.712 173.866C200.712 173.474 201.033 172.876 201.426 172.538C201.819 172.198 202.141 171.735 202.141 171.508C202.141 171.282 202.452 170.698 202.833 170.209C203.214 169.722 203.631 168.901 203.759 168.386C203.886 167.871 204.21 167.366 204.475 167.263C204.742 167.16 205.067 166.5 205.197 165.796C205.329 165.092 205.553 164.516 205.696 164.516C206.092 164.516 206.786 162.794 206.786 161.811C206.786 161.309 207.088 160.777 207.5 160.554C208.033 160.267 208.215 159.8 208.215 158.719C208.215 157.748 208.346 157.352 208.612 157.517C209.216 157.894 209.633 156.949 209.638 155.191C209.642 154.12 209.841 153.464 210.255 153.159C210.705 152.828 210.905 152.029 211.011 150.148C211.09 148.74 211.297 147.587 211.471 147.587C211.653 147.587 211.788 160.883 211.788 178.811V210.035L210.984 210.908L210.181 211.781L210.984 212.326C211.629 212.763 211.788 213.209 211.788 214.584C211.788 215.951 211.626 216.412 210.984 216.867L210.181 217.437L211.074 218.171L211.967 218.907L211.074 219.632L210.181 220.357L211.031 221.078L211.881 221.799L210.941 222.676C210.425 223.159 210.001 223.732 210.001 223.949C210.001 224.401 206.61 227.911 206.174 227.911C206.015 227.911 205.685 228.235 205.44 228.632C205.194 229.028 204.754 229.352 204.46 229.352C204.167 229.352 203.927 229.595 203.927 229.893C203.927 230.189 203.698 230.433 203.418 230.433C203.139 230.433 202.432 230.838 201.849 231.333C201.264 231.829 200.62 232.234 200.416 232.234C200.212 232.234 199.943 232.558 199.818 232.954C199.693 233.35 199.386 233.675 199.135 233.675C198.884 233.675 198.387 233.999 198.032 234.395C197.676 234.791 197.193 235.115 196.959 235.115C196.725 235.115 196.244 235.44 195.888 235.835C195.532 236.232 195.06 236.556 194.84 236.556C194.619 236.556 194.163 236.88 193.827 237.277C193.49 237.672 192.893 237.997 192.5 237.997C192.106 237.997 191.584 238.321 191.338 238.717C191.093 239.114 190.609 239.438 190.263 239.438C189.917 239.438 189.313 239.762 188.92 240.158C188.527 240.554 187.986 240.878 187.717 240.878C187.449 240.878 186.847 241.181 186.377 241.549C185.909 241.919 185.178 242.33 184.754 242.464C184.329 242.598 183.787 242.944 183.548 243.234C183.311 243.523 182.835 243.76 182.493 243.76C182.15 243.76 181.461 244.084 180.961 244.48C180.462 244.877 179.831 245.201 179.559 245.201C179.288 245.201 178.454 245.516 177.705 245.901C176.956 246.285 175.888 246.7 175.332 246.824C174.774 246.947 174.138 247.269 173.916 247.537C173.696 247.806 172.841 248.141 172.018 248.281C171.195 248.421 169.961 248.839 169.275 249.209C168.588 249.581 167.743 249.884 167.395 249.884C167.048 249.884 166.161 250.224 165.425 250.641C164.689 251.057 164.408 251.31 164.801 251.201C166.231 250.805 169.128 249.798 170.763 249.129C171.684 248.751 172.759 248.442 173.154 248.442C173.548 248.442 173.962 248.293 174.075 248.109C174.187 247.925 174.881 247.583 175.614 247.349C181.144 245.583 195.024 237.925 201.652 232.982C202.469 232.373 202.859 232.107 205.356 230.454C206.241 229.868 207.458 228.929 208.063 228.369C208.666 227.808 210.596 226.112 212.35 224.602C221.92 216.359 233.275 202.519 238.89 192.252C242.561 185.539 247.877 173.913 247.877 172.598C247.877 172.275 248.106 171.581 248.385 171.055C249.747 168.493 252.823 156.156 253.789 149.388C256.173 132.664 255.791 126.261 252.248 123.536L250.97 122.553L234.328 122.472C221.143 122.407 217.461 122.49 216.611 122.868ZM166.052 204.963C164.814 205.637 164.812 205.642 165.873 205.406C166.462 205.275 167.095 205.02 167.278 204.839C167.905 204.222 167.303 204.283 166.052 204.963ZM163.55 206.075C162.433 206.672 159.619 208 158.905 208.268C158.611 208.377 158.921 208.383 159.597 208.28C160.271 208.177 161.088 207.851 161.411 207.556C161.734 207.261 162.249 207.019 162.556 207.019C162.863 207.019 163.494 206.701 163.957 206.311C164.942 205.485 164.805 205.406 163.55 206.075ZM160.513 252.061C159.531 252.432 159.005 252.742 159.344 252.75C159.685 252.758 160.569 252.532 161.31 252.246C162.051 251.961 162.979 251.656 163.372 251.568C163.928 251.443 163.888 251.405 163.193 251.398C162.701 251.391 161.496 251.69 160.513 252.061ZM156.494 253.014C156.838 253.104 157.4 253.104 157.744 253.014C158.087 252.923 157.807 252.848 157.119 252.848C156.431 252.848 156.15 252.923 156.494 253.014Z" fill="#435BFF"/>
</g>
<defs>
<clipPath id="clip0_77_45">
<rect width="256" height="256" fill="white"/>
</clipPath>
</defs>
</svg>
