<svg width="173" height="280" viewBox="0 0 173 280" fill="none" xmlns="http://www.w3.org/2000/svg">
<path d="M151.6 219.2C159.067 219.2 164.4 220.8 167.6 224C171.067 227.2 172.8 232.667 172.8 240.4V258.8C172.8 266.533 171.067 272 167.6 275.2C164.4 278.4 159.067 280 151.6 280H22C14.5333 280 9.06667 278.4 5.6 275.2C2.4 272 0.8 266.533 0.8 258.8V240.4C0.8 232.667 2.4 227.2 5.6 224C9.06667 220.8 14.5333 219.2 22 219.2H54V61.6C37.2 60.8 24 55.4667 14.4 45.6C4.8 35.7333 2.98023e-07 25.0667 2.98023e-07 13.6C2.98023e-07 4.53332 5.2 -1.90735e-05 15.6 -1.90735e-05H98.4C106.133 -1.90735e-05 111.6 1.73332 114.8 5.19999C118 8.39999 119.6 13.7333 119.6 21.2V219.2H151.6Z" fill="black"/>
</svg>
